<svg width="369" height="293" viewBox="0 0 369 293" fill="none" xmlns="http://www.w3.org/2000/svg">
<path d="M93.3 251C91.3 250.2 91 249.3 91 245.1C91 237.4 91.4 237 98.1 237C101.4 237 104 237.4 104 238C104 238.6 101.8 239 99 239C94.7 239 94 239.3 94 241C94 242.7 94.7 243 99 243C101.8 243 104 243.5 104 244C104 244.6 101.8 245 99 245C94.7 245 94 245.3 94 247C94 248.7 94.7 249 99 249C104.2 249 105.7 250.3 101.8 251.4C98.7 252.2 96 252.1 93.3 251Z" fill="#0857A4"/>
<path d="M136.5 251.2C135.9 250.8 134 248.3 132.2 245.5L129 240.5V245.8C129 248.6 128.6 251 128 251C127.4 251 127 248 127 244C127 235.3 128.4 234.9 133.1 242.2L136.5 247.5L136.8 242.2C137 238.4 137.5 237 138.6 237C139.8 237 140 238.4 139.8 244.2C139.5 251.1 138.7 252.8 136.5 251.2Z" fill="#0857A4"/>
<path d="M164.2 251C162.1 250.1 161.9 249.5 162.2 243.8L162.5 237.5L168.8 237.2C172.6 237 175 237.3 175 238C175 238.5 172.8 239 170 239C165.7 239 165 239.3 165 241C165 242.1 165.7 243 166.5 243C167.3 243 168 243.5 168 244C168 244.6 167.3 245 166.5 245C165.7 245 165 245.9 165 247C165 248.7 165.7 249 169.4 249C174.7 249 176.3 250.5 171.9 251.4C168 252.2 167.1 252.1 164.2 251Z" fill="#0857A4"/>
<path d="M204.2 249C199.3 245.5 199 245.4 199 248C199 249.3 198.5 249.8 197.5 249.4C196.4 248.9 196 247.2 196 242.9C196 235.9 196.6 235.5 204.5 236.5C208.6 237 210.1 237.6 210.5 239.1C211.5 242.3 210.1 244.8 206.8 245.5L203.7 246.2L206.6 248.5C211 252 208.9 252.4 204.2 249ZM207.4 242C209 240.5 206.8 239 202.9 239C199.8 239 199 239.4 199 240.8C199 241.8 199.3 242.9 199.6 243.3C200.4 244 206.2 243 207.4 242Z" fill="#0857A4"/>
<path d="M233.3 251C230.6 249.9 229.7 247 230.5 241.9C231.3 237.2 233.5 235.8 239.2 236.2C245.5 236.7 245.4 239 239.1 239H234V244V249H237.9C241.5 249 241.9 248.7 242.2 246.3C242.7 242.1 245 242.2 245 246.4C245 249.4 244.5 250.2 242.4 251C239.4 252.2 236.3 252.2 233.3 251Z" fill="#0857A4"/>
<path d="M272 248.2C272 246.6 270.7 243.9 268.9 241.7C264.8 236.7 265.7 234.4 269.9 239L273.1 242.5L276 239C277.6 237.1 279.1 235.8 279.4 236.1C280 236.6 278.9 238.9 275.3 245.3C274.6 246.5 274 248.3 274 249.3C274 250.2 273.6 251 273 251C272.5 251 272 249.8 272 248.2Z" fill="#0857A4"/>
<path d="M171 244C171 243.5 171.6 243 172.4 243C173.2 243 174.2 243.5 174.5 244C174.8 244.6 174.2 245 173.1 245C171.9 245 171 244.6 171 244Z" fill="#0857A4"/>
<path d="M182.3 167C176.7 163.6 177.3 163 186.1 163C194.7 163 194.9 163.3 188.9 166.8C185.4 168.9 185.4 168.9 182.3 167Z" fill="#0857A4"/>
<path d="M175.6 158.8C174.5 154.7 174.9 153 176.9 153C178.5 153 180 156.3 180 160.1C180 162.1 176.2 160.9 175.6 158.8Z" fill="#0857A4"/>
<path d="M184.3 160.3C185.8 160.1 187 159.2 187 158.4C187 157.6 187.9 157 189.1 157C191 157 191.1 156.5 190.8 149C190.5 141.4 190.6 140.9 192.5 141.2C194.3 141.5 194.5 142.3 194.6 148.7C194.7 152.6 194.5 157 194.3 158.4C193.8 160.9 193.5 161 187.6 160.9C184.3 160.8 182.7 160.5 184.3 160.3Z" fill="#0857A4"/>
<path d="M196.4 159.7C196.1 158.9 196 154.5 196.2 149.9L196.5 141.5H206.5C216.2 141.5 216.5 141.6 216.8 143.9C217.6 149 216.2 150.8 207.5 156C198.3 161.4 197.2 161.7 196.4 159.7Z" fill="#0857A4"/>
<path d="M219 145.1V141H222.9C225.1 141 227.5 140.7 228.4 140.4C229.4 140 230 140.3 230 141.2C230 142.5 229 143.3 222.3 147.3L219 149.2V145.1Z" fill="#0857A4"/>
<path d="M190.7 132.6C191 129.1 191 125 190.6 123.6C190 121.2 189.6 121 184.5 121C181.5 121 179 121.5 179 122C179 122.6 178.1 123 177 123C175.7 123 175 122.3 175 121C175 119 175.5 118.9 184.8 119.2L194.5 119.5L194.8 127C195.2 136.3 194.5 139 192 139C190.2 139 190.1 138.5 190.7 132.6Z" fill="#0857A4"/>
<path d="M196.7 138.3C196.3 138 196 133.7 196 128.8C196 118.6 195.9 118.7 204.6 119.2L210.5 119.5L207 121.2C205.1 122.2 204.4 122.8 205.5 122.6C215.2 120.5 215.2 120.5 212.2 124.8C208.8 129.7 208.8 130.5 212.2 126.7C214 124.7 215.8 123 216.3 123C217.1 123 217.3 135.1 216.4 137.4C215.9 138.7 214.1 139 206.6 139C201.5 139 197 138.7 196.7 138.3ZM205 131C205 127.4 204.8 127 202.5 127C200.3 127 200 127.4 200 131C200 134.6 200.3 135 202.5 135C204.8 135 205 134.6 205 131Z" fill="#0857A4"/>
<path d="M218.5 135.2C218.2 133 218.2 129.1 218.5 126.6L219.2 122L222.8 126.5C227.3 132.3 228.2 131.6 223.9 125.4L220.7 120.7L223.4 121.4C224.8 121.7 227.2 122.2 228.8 122.5C231.3 123.1 231.2 122.9 228 121.1L224.5 119.1H230C238 119 238.3 119.4 237.9 128.8C237.7 133.2 237.1 137.2 236.7 137.7C236.2 138.1 232.1 138.7 227.5 138.8L219.2 139.2L218.5 135.2Z" fill="#0857A4"/>
<path d="M176.8 117.5C175.2 115.9 184.6 97 187 97C187.5 97 188 98.4 188 100C188 101.7 187.6 103 187 103C186.5 103 186 103.7 186 104.5C186 105.3 185.3 106 184.5 106C183.7 106 183 106.8 183 107.8C183 108.7 182.7 110.5 182.4 111.8C181.8 113.8 182.1 114 186.4 114H191V105.5C191 97.7 191.2 97 193 97C194.9 97 195 97.7 195 106.9V116.7L191.3 117.4C186.7 118.1 177.5 118.2 176.8 117.5Z" fill="#0857A4"/>
<path d="M198.2 117.3C196 116.9 195.9 116.6 196.2 107.2C196.5 98.4002 196.7 97.5002 198.5 97.3002C199.6 97.1002 199.9 97.3002 199.3 97.6002C198.4 98.0002 198 100.7 198.1 106.3C198.2 110.8 198.5 113.5 198.7 112.3C199 110.5 199.8 110 202.1 110C204.8 110 205 109.8 205 106C205 102.2 205.1 102 208.2 102C209.9 102 212.2 102.7 213.2 103.7C214.3 104.6 215 104.8 215 104.2C215 103.5 214.6 103 214 103C213.5 103 213 101.6 213 99.9002C213 97.5002 213.4 96.9002 214.8 97.2002C216.2 97.5002 216.5 98.8002 216.8 105.8C217 110.3 216.8 114 216.6 114C216.3 114 214.4 112.3 212.4 110.3C208.8 106.5 208.7 107.2 212.3 112.3C214.7 115.8 214.3 116.2 209.9 115C205 113.6 202.9 113.9 207 115.5L210.5 116.8L207.5 116.9C205.9 117 203.6 117.2 202.5 117.4C201.4 117.6 199.5 117.6 198.2 117.3Z" fill="#0857A4"/>
<path d="M228.5 115.5C232 113.9 231 113.7 225.8 114.9C223.8 115.4 221.9 115.5 221.6 115.3C221.3 115 222.1 113.3 223.4 111.6C227.4 106.2 227.3 105.3 223.2 109.8L219.3 114.2L218.8 107.5C217.9 96.8003 217.7 97.0003 228.6 97.0003H238V107V117H231.8C225.6 116.9 225.6 116.9 228.5 115.5Z" fill="#0857A4"/>
<path d="M189 94.2003C189 93.3003 191.5 90.9003 193.8 89.6003C194.6 89.1003 195 89.8003 195 91.9003C195 94.7003 194.7 95.0003 192 95.0003C190.4 95.0003 189 94.6003 189 94.2003Z" fill="#0857A4"/>
<path d="M196 91.3002C196 87.9002 196.5 87.2002 200.4 84.8002C205.7 81.4002 206 81.4002 206 84.5002C206 85.9002 205.6 87.0002 205 87.0002C203.3 87.0002 200 90.9002 200 93.0002C200 94.3002 199.3 95.0002 198 95.0002C196.4 95.0002 196 94.3002 196 91.3002Z" fill="#0857A4"/>
<path d="M213 89.0002V83.0002H210C206.3 83.0002 206.1 81.5002 209.8 79.7002C217.1 75.9002 217 75.9002 217 85.9002C217 94.3002 216.9 95.0002 215 95.0002C213.2 95.0002 213 94.3002 213 89.0002Z" fill="#0857A4"/>
<path d="M218 86.8002C218 82.2002 218.4 77.9002 218.9 77.1002C220.9 74.0002 242.7 71.1002 253.6 72.5002L259.5 73.2002L252 75.4002C247.9 76.6002 243 78.4002 241.3 79.5002C238.1 81.4002 238 81.6002 238 88.2002V95.0002H228H218V86.8002ZM227 92.6002C227 91.7002 228.2 91.0002 230.3 90.8002C233.5 90.5002 233.5 90.4002 233.8 84.8002C234 81.6002 234.5 79.0002 235 79.0002C235.6 79.0002 236 78.6002 236 78.0002C236 76.7002 233.3 76.7002 227 78.1002L222 79.2002V86.6002C222 93.8002 222.1 94.0002 224.5 94.0002C226 94.0002 227 93.4002 227 92.6002Z" fill="#0857A4"/>
<path d="M96.3 250.3C97.8 250.1 100.2 250.1 101.8 250.3C103.3 250.5 102 250.7 99 250.7C96 250.7 94.7 250.5 96.3 250.3Z" fill="#0B5FA7"/>
<path d="M127.2 244.8C127.1 241.1 127.4 237.9 127.9 237.6C128.3 237.3 130.4 239.5 132.5 242.5C134.5 245.5 136.6 248 137.1 248C137.6 248 138.1 245.4 138.1 242.3L138.2 236.5L139.2 242.4C140.8 252.7 137.9 254.1 133 245.5C131.3 242.5 129.5 240 129 240C128.5 240 127.9 242.6 127.7 245.8L127.4 251.5L127.2 244.8Z" fill="#0B5FA7"/>
<path d="M167.3 250.3C168.8 250.1 171 250.1 172.3 250.3C173.5 250.5 172.3 250.7 169.5 250.7C166.8 250.7 165.7 250.5 167.3 250.3Z" fill="#0B5FA7"/>
<path d="M196.2 244.3L196.5 237.5H203H209.5V241C209.5 243.7 209.1 244.5 207.5 244.8C202.8 245.6 202.4 246 205 248.1C207.8 250.4 205 249 201.3 246.4C199.1 244.8 199 244.8 199 247.9C199 250 198.5 251 197.5 251C196.2 251 196 249.8 196.2 244.3ZM207.5 241C207.5 238.8 207.1 238.5 203.5 238.5C199.9 238.5 199.5 238.8 199.2 241.3C198.9 244 199 244.1 203.2 243.8C207 243.5 207.5 243.2 207.5 241Z" fill="#0B5FA7"/>
<path d="M231.7 250.3C231.3 250 231 247 231 243.8C231 237 231.3 236.7 239.1 237.2L244.5 237.5L239 238.5L233.5 239.5L233.4 243.5C233.2 248.3 234.4 250 237.9 250C241 250 243 248.4 243 245.8C243 244.8 243.5 244 244 244C245.4 244 245.3 248.3 243.8 249.8C242.5 251.1 232.8 251.5 231.7 250.3Z" fill="#0B5FA7"/>
<path d="M92.3 245C92.3 242 92.5 240.5 92.7 241.8C93.1 243.7 93.7 244 97.6 243.8C100 243.8 102.3 244 102.7 244.3C103 244.7 101 245 98.2 245C93.4 245 93.1 245.2 92.7 247.8C92.5 249.3 92.3 248 92.3 245Z" fill="#0B5FA7"/>
<path d="M162 244C162 238.6 162.2 238 164.3 237.4C165.6 237.1 168.4 237 170.6 237.3C174 237.6 173.8 237.7 169.3 237.8C164.4 238 164 238.2 164 240.5C164 242.8 164.3 243 169 243C171.8 243 174 243.5 174 244C174 244.6 171.8 245 169 245C164.3 245 164 245.2 164 247.5C164 248.9 163.6 250 163 250C162.4 250 162 247.3 162 244Z" fill="#0B5FA7"/>
<path d="M269.8 241.6C266.1 236.9 266.3 235.6 270 240L272.9 243.5L276 240L279.1 236.5L277 240.8C275.9 243.1 274.4 245 273.7 245C273.1 245 271.3 243.4 269.8 241.6Z" fill="#0B5FA7"/>
<path d="M96.3 237.3C97.8 237.1 100.2 237.1 101.8 237.3C103.3 237.5 102 237.7 99 237.7C96 237.7 94.7 237.5 96.3 237.3Z" fill="#0B5FA7"/>
<path d="M181.2 165.9C179.4 164.7 178.1 163.5 178.4 163.3C179.1 162.6 190 164 190 164.7C190 165.5 186.7 167.9 185.5 168C185 168 183 167 181.2 165.9Z" fill="#0B5FA7"/>
<path d="M176.6 160.2C176.4 159.8 175.9 157.8 175.5 155.7C174.8 152.4 175 152 176.9 152C178.3 152 179 152.6 179 154C179 155.7 179.3 155.8 181.5 154.8C182.9 154.2 184.3 152.6 184.6 151.4C184.9 150.1 185.8 148.6 186.6 147.9C188.8 146.1 188.2 145 185 145C183.1 145 182 144.5 182 143.6C182 142.6 180.7 142 178.3 141.7C176.2 141.5 178.9 141.3 184.3 141.2L194 141V150.4V159.8L190.9 160.4C186.5 161.2 177.2 161.2 176.6 160.2Z" fill="#0B5FA7"/>
<path d="M197.7 158.3C196.7 157.4 196.8 142.2 197.8 141.6C199.4 140.7 206.9 142.3 207.4 143.7C207.8 144.6 206.6 146.4 204.5 148.3C201 151.4 200.1 153.5 202.1 154.2C202.7 154.4 202.3 155.5 201.2 156.8C199.1 159.2 198.7 159.4 197.7 158.3Z" fill="#0B5FA7"/>
<path d="M175 137C175 135.1 175.6 135 184.6 135C193.2 135 194.1 135.2 193.8 136.8C193.5 138.2 192.1 138.5 184.2 138.8C175.5 139.1 175 139 175 137Z" fill="#0B5FA7"/>
<path d="M197 134C197 131.3 197.5 129.7 198.5 129.4C199.8 128.9 199.8 128.6 198.5 127.3C197.7 126.5 197 124.5 197 122.9C197 120.1 197.1 120 202.3 120.1C207 120.1 207.2 120.3 204.8 121.2C201.8 122.3 200.9 124.4 203.8 123.7C204.7 123.4 207.2 122.9 209.3 122.5C213.5 121.8 213.5 121.9 209.8 127.2C206.5 132 208 132.6 212 128L215.9 123.5L216 129.1C216 136.9 214.6 138 204.7 138H197V134Z" fill="#0B5FA7"/>
<path d="M219 125.8C219 124.1 219.2 124 220.5 125C221.3 125.7 222 126.4 222 126.5C222 126.7 221.3 127 220.5 127.4C219.5 127.8 219 127.3 219 125.8Z" fill="#0B5FA7"/>
<path d="M175.2 121.3C175.5 119.7 176.7 119.5 184.5 119.5C192.3 119.5 193.5 119.7 193.8 121.3C194.1 122.8 193.1 123 184.5 123C175.9 123 174.9 122.8 175.2 121.3Z" fill="#0B5FA7"/>
<path d="M177 115.9C177 114.2 179 111 180 111C180.6 111 181 112.1 181 113.5C181 115.9 181.3 116 187 116H193V110.5C193 107.5 192.6 105 192 105C191.5 105 191 103.2 191 101C191 98.3 191.4 97 192.4 97C194.3 97 194.6 99.1 194.2 108.8L193.8 117H185.4C180.1 117 177 116.6 177 115.9Z" fill="#0B5FA7"/>
<path d="M196.2 107.3L196.5 97.4999L206.2 97.1999L215.9 96.8999L216.6 100.5C216.9 102.4 216.9 106.1 216.5 108.7L215.8 113.3L212 108.9C207.4 103.7 207 104.4 210.7 110.7L213.3 115.2L209.9 114.5C208 114.1 205.4 113.6 204 113.3C200.7 112.5 202.3 114.2 206.3 115.7C209.3 116.8 209.1 116.9 202.7 116.9L195.9 117L196.2 107.3ZM204.2 105.5C203.9 101.9 203.4 101 201.9 101C200.3 101 200 101.7 200 105.5C200 109.5 200.2 110 202.3 110C204.3 110 204.5 109.6 204.2 105.5ZM212.6 101.2C211.4 100.1 210.8 101.9 211.6 104.2L212.4 106.5L212.8 104.2C213 102.9 212.9 101.6 212.6 101.2Z" fill="#0B5FA7"/>
<path d="M223 114.2C223 113.8 224.3 111.5 226 109C230.1 102.8 228.7 102.5 223.4 108.5L219 113.5V105.8V98H224.5C227.5 98 231.1 98.5 232.6 99.2C235.1 100.4 235.2 100.7 234.6 105.4C234.3 108.1 233.7 110.7 233.2 111.2C232 112.4 223 115.1 223 114.2Z" fill="#0B5FA7"/>
<path d="M184.6 99.5C185.5 98.1 186.9 97 187.6 97C188.4 97 189 98 189 99.5C189 101.6 188.5 102 186 102C183 102 183 102 184.6 99.5Z" fill="#0B5FA7"/>
<path d="M191 93.6002C191 92.2002 193.8 89.4002 194.5 90.2002C194.7 90.4002 194.7 91.6002 194.3 92.8002C193.7 95.2002 191 95.9002 191 93.6002Z" fill="#0B5FA7"/>
<path d="M196.7 94.3C196.3 94 196 92.5 196 91C196 88 201.6 83.4 209.5 80C215.3 77.5 216 77.5 216 80C216 81.3 215.3 82 214 82C212.9 82 212 82.4 212 82.9C212 83.4 210.4 84.4 208.5 85.1C206.6 85.8 205 86.8 205 87.2C205 87.6 203.9 88 202.5 88C200.4 88 200 88.5 200 91C200 93.9 200.1 94 205 94C208.8 94 210 93.6 210 92.5C210 91.5 211 91 213 91C215.3 91 216 91.4 216 93C216 94.9 215.3 95 206.7 95C201.5 95 197 94.7 196.7 94.3Z" fill="#0B5FA7"/>
<path d="M219 92.1001C219 89.4001 219.3 88.9001 221.3 89.0001C225.2 89.4001 225.8 89.1001 226.9 86.0001C227.4 84.4001 228.4 83.0001 228.9 83.0001C229.5 83.0001 230 82.0001 230 80.9001C230 78.9001 229.7 78.8001 224.5 79.4001C219.5 80.0001 219 79.8001 219 78.1001C219 75.3001 226.4 73.9001 243 73.4001C255.5 73.1001 256.2 73.1001 252 74.3001C246.8 75.9001 241.3 78.6001 238.8 80.8001C237.5 81.9001 237 83.8001 237 87.6001C237 90.5001 236.5 93.2001 235.9 93.6001C235.3 93.9001 231.3 94.5001 226.9 94.7001L219 95.3001V92.1001Z" fill="#0B5FA7"/>
<path d="M232.2 249.8C231.5 249.1 231 246.3 231 243.4C231 237.5 231.7 236.9 238.3 237.2L242.5 237.3L238 237.9L233.5 238.5V244V249.5L238 250.1L242.5 250.7L238 250.8C235.4 250.9 232.9 250.5 232.2 249.8Z" fill="#0C7FBE"/>
<path d="M197 243.7C197 240 197.4 237 197.8 237C198.7 237 198.5 248.9 197.6 249.8C197.2 250.1 197 247.3 197 243.7Z" fill="#0C7FBE"/>
<path d="M208.3 242C208.2 240.9 208.5 240 209.1 240C209.6 240 210 240.9 210 242C210 243.1 209.6 244 209.2 244C208.8 244 208.4 243.1 208.3 242Z" fill="#0C7FBE"/>
<path d="M176.4 158.8C176 158.1 175.4 153.8 175.2 149.3L174.7 141H178.2C180.2 141 183.8 141.3 186.4 141.6C190.9 142.3 191 142.3 191 146C191 148.1 190.4 150.3 189.6 150.9C188.8 151.6 187.9 153.1 187.6 154.3C186.6 158.3 178.1 161.6 176.4 158.8Z" fill="#0C7FBE"/>
<path d="M178 136C178 134.9 178.4 134 179 134C179.5 134 181.1 132.2 182.5 130C184.3 127.1 184.8 125.3 184.4 123L183.8 120H188.9H194V129V138H186C178.7 138 178 137.8 178 136Z" fill="#0C7FBE"/>
<path d="M197 127.5C197 121.5 197.3 120 198.5 120C199.3 120 200 120.6 200 121.4C200 123.1 202.7 126 204.1 126C204.7 126 204.8 125.4 204.4 124.8C204 124.1 204.5 124.2 205.4 125.1C207.7 127.2 206.2 129.7 200.9 132.8L197 135.1V127.5Z" fill="#0C7FBE"/>
<path d="M175 121.6C175 119.6 176.2 119 178.8 119.7C182.1 120.5 181.5 123 178 123C176.1 123 175 122.5 175 121.6Z" fill="#0C7FBE"/>
<path d="M177 116.8C177.1 114.3 180.8 105.4 183.3 101.8C186.2 97.5 186.9 97 190.3 97C193.3 97 194 97.4 194 99C194 100.6 193.3 101 190.5 101C187.7 101 187 101.4 187 102.9C187 104 186.6 105 186.1 105.2C185.7 105.4 184.4 108 183.3 111C181.8 115 180.7 116.6 179.1 116.8C178 117 177 117 177 116.8Z" fill="#0C7FBE"/>
<path d="M190 114.5C190 112.7 190.5 112 192 112C193.5 112 194 112.7 194 114.5C194 116.3 193.5 117 192 117C190.5 117 190 116.3 190 114.5Z" fill="#0C7FBE"/>
<path d="M197 113.3C197 111.3 198.2 107.1 199.8 103.9L202.5 98H209.3H216V105.2V112.4L211.5 108C206.9 103.5 205.9 103.5 208.5 108C210.9 112.2 210.4 113 205.3 113L200.5 113.1L204 115L207.5 116.9L202.3 117H197V113.3Z" fill="#0C7FBE"/>
<path d="M191 92.5C192.3 91.1 193.5 90 193.7 90C193.9 90 194 91.1 194 92.5C194 94.5 193.5 95 191.3 95H188.7L191 92.5Z" fill="#0C7FBE"/>
<path d="M197 91.2C197 87.7 197.4 87.2 202.3 84.3C207 81.4 214.1 78 215.5 78C215.8 78 216 81.5 216 85.9C216 95.1 216.2 95 204.3 95H197V91.2ZM208.1 90C209.1 89.4 210 88.1 210 87.1C210 85.4 209.7 85.3 207 86.3C205.4 86.9 204 87.8 204 88.2C204 88.6 203.3 89 202.5 89C201.7 89 201 89.5 201 90C201 91.3 205.6 91.3 208.1 90Z" fill="#0C7FBE"/>
<path d="M219.1 85.6C219 79.6 219.3 76.9 220.2 76.4C221.6 75.5 236 75.7 236.9 76.5C237.1 76.8 236.4 78.4 235.2 80C234 81.6 233 83.6 233 84.5C233 85.3 232.5 86 231.9 86C231.4 86 230.4 87.3 229.9 88.9C229.2 90.8 227.8 92.2 225.8 92.9C219.5 95.1 219.3 94.8 219.1 85.6Z" fill="#0C7FBE"/>
<path d="M175.2 145C175.2 143.1 175.4 142.3 175.7 143.3C175.9 144.2 175.9 145.8 175.7 146.8C175.4 147.7 175.2 146.9 175.2 145Z" fill="#0D8ACB"/>
<path d="M175 129V120H180.8C184.8 120 187.2 120.6 188.9 121.9L191.3 123.7L187.5 129.9C183.4 136.6 181.6 138 177.6 138C175 138 175 138 175 129Z" fill="#0D8ACB"/>
<path d="M177 116.7C177 115.3 182.3 103.4 184 101C185.8 98.5 186.8 98 190.1 98H194V105.9C194 117.2 194.2 117 184.9 117C180.6 117 177 116.9 177 116.7Z" fill="#0D8ACB"/>
<path d="M197 106V98H200.8C204.1 98 204.7 98.4 205.7 101C206.5 103.1 206.5 103.9 205.7 103.7C205.1 103.6 203.5 105.9 202.1 108.7C198.3 116.4 197 115.6 197 106Z" fill="#0D8ACB"/>
<path d="M191 94.2C191 93.7 191.7 92.5 192.5 91.4C193.9 89.6 193.9 89.6 194 92.3C194 94 193.5 95 192.5 95C191.7 95 191 94.6 191 94.2Z" fill="#0D8ACB"/>
<path d="M197 91.2C197 88.4 197.7 87.5 201.7 85C209.3 80.2 216 79 216 82.6C216 83.4 215.6 84 215.1 84C214.6 84 213.9 85.8 213.5 88C213.1 90.2 212.3 92.3 211.7 92.7C211 93.1 207.5 93.7 203.8 94L197 94.5V91.2Z" fill="#0D8ACB"/>
<path d="M169.9 225.7C168.6 225 164.3 219.7 160.3 214C156.4 208.2 152.2 202.2 151.1 200.5L149 197.5V211.8V226.1L145.3 225.8L141.5 225.5L141.2 209.7C141.1 199.8 141.3 193.2 142 191.9C143.5 189.1 147.4 187.8 150.3 189.1C151.5 189.6 156.6 196.2 161.5 203.7L170.5 217.3L170.8 203.1L171.1 188.9L174.8 189.2L178.5 189.5V206.9V224.4L175.4 225.6C173 226.6 171.8 226.6 169.9 225.7ZM147 197C147 196.5 147.9 196 149 196C151.3 196 151.5 195.4 149.8 193.6C147.9 191.6 145 192.9 145 195.6C145 196.9 145.5 198 146 198C146.6 198 147 197.6 147 197Z" fill="#DC6737"/>
<path d="M56.7 225.3C56.3 225 56 223.8 56 222.8C56 221.2 57 221 67.5 221C78.7 221 79.1 220.9 80.1 218.6C82 214.5 80.5 211.3 76.5 210.6C74.6 210.2 73 209.5 73 209C73 208.4 71.7 208 70 208C68.4 208 67 208.5 67 209C67 211.7 57.8 208.6 56.6 205.5C55.7 203.1 55.8 203 58 203C59.5 203 60 202.3 60 200.5C60 198.7 59.5 198 58 198C55.2 198 55.4 194.5 58.4 191.5C60 189.9 62.4 189 66.4 188.5C73.2 187.6 81.3 188.4 81.8 189.9C82.3 191.3 85 191.4 85 190C85 189.5 85.9 189 87 189C89.3 189 89.8 192.4 87.8 193.7C87.1 194.1 81.6 194.7 75.5 195L64.5 195.5V199.5V203.5L72.7 204.1C85.6 205.1 89 207.4 89 215.3C89 220.1 86.9 223.4 83 224.7C79.3 226 57.8 226.5 56.7 225.3Z" fill="#DC6737"/>
<path d="M103.6 225C97.3 223.1 97 222.3 97 204.8V189H101H105V195.5C105 201.3 104.8 202 103 202C101.2 202 101 202.7 101 207.5C101 212.3 101.2 213 103 213C104.6 213 105 213.7 105 216C105 219.9 107.7 221 116.9 221C124.5 221 127 219.4 127 214.7C127 213 127.5 212 128.5 212C129.7 212 130 210.1 130 200.5C130 189.7 130.1 189 132 189C133.9 189 134 189.7 134 204.5C134 218.8 133.8 220.2 132 222C130.8 223.2 128.8 224.5 127.4 225C124.3 226.2 107.6 226.2 103.6 225Z" fill="#DC6737"/>
<path d="M186 217C186 208.7 186.2 208 188 208C189.7 208 189.9 207.2 190.2 199.8L190.5 191.5L201.5 191.2C208.1 191 212.7 190.5 213.1 189.8C214 188.3 218.6 189.6 221 192C223.7 194.7 223.7 199 221.1 199C220 199 218.9 198.2 218.7 197.3C218.3 195.9 218.2 196.1 218.1 197.8C218 200.8 215.4 200.6 214.6 197.5C214 195 213.8 195 204 195H194V201.6C194 206.9 194.3 208 195.3 207.2C196 206.6 200.4 206 205 205.8C212.7 205.5 213.6 205.3 214.5 203.3C215.7 200.6 218 200.3 218.1 202.8C218.1 203.8 218.4 204 218.7 203.3C219.4 201.5 223 201.7 223 203.4C223 208.2 218.9 210.8 211.2 210.8C205 210.8 203.8 211.5 206.6 213.5C207.8 214.2 210.7 216.5 213.1 218.6C215.5 220.6 218.5 222.7 219.8 223.3C223 224.8 222.5 226 218.5 226C214.3 226 209.6 223.6 201 217L194.5 212.1L194.2 219.1L193.9 226H190H186V217Z" fill="#DC6737"/>
<path d="M229 213.1C229 200.7 229.1 200 231 200C232.6 200 233 199.3 233 196.5C233 193.7 232.6 193 231 193C229.7 193 229 192.3 229 191C229 189.3 229.7 189 233 189H237L236.8 207.3L236.5 225.5L232.8 225.8L229 226.1V213.1Z" fill="#DC6737"/>
<path d="M243.7 225.3C243.3 225 243 223.8 243 222.8C243 221.2 244 221 254.4 221C267.4 221 269.3 220.1 268.8 214.7C268.5 212 268 211.4 264.8 210.7C262.7 210.2 261 209.4 261 208.9C261 208.4 259.7 208 258 208C256.4 208 255 208.5 255 209C255 211.3 248.8 210 245.9 207.1C243.5 204.7 243 203.3 243 199.5C243 195.7 243.5 194.3 245.9 191.9C248.7 189.1 253 187.9 253 190C253 190.6 257 191 263 191C269 191 273 190.6 273 190C273 189.5 273.9 189 275 189C276.4 189 277 189.7 277 191.4C277 194.5 275 195 262.9 195C251.9 195 249.9 196 251.6 200.8C252.5 203.4 253 203.5 261.2 204.2C266 204.5 270.8 205.1 271.9 205.5C274.8 206.4 277 211.1 277 216.4C277 221.6 275.5 223.5 270.2 225C266.1 226.1 244.7 226.4 243.7 225.3Z" fill="#DC6737"/>
<path d="M291.5 225.3C290.4 225.1 288.4 224.1 287 223C284.5 221.1 284.5 220.8 284.5 207.5C284.5 194.3 284.6 193.8 286.9 191.9C289.9 189.4 294.3 188.3 294.8 189.8C295 190.6 298.8 191 306.7 191C317.1 191 318.1 191.2 317.8 192.8C317.5 194.3 315.9 194.6 305.5 195L293.5 195.5L293.2 200.3L292.9 205H304.9C316.9 205 317 205 317 207.3C317 209.7 316.9 209.7 307.3 209.3C295.2 208.7 292 209.7 292 214C292 219.8 294.6 221 307 221C317.1 221 318 221.2 318 222.9C318 223.9 317.3 225.1 316.4 225.4C314.7 226 294.8 226 291.5 225.3ZM288.7 200.8C288.5 199 288.3 200.2 288.3 203.5C288.3 206.8 288.5 208.3 288.7 206.8C288.9 205.3 288.9 202.6 288.7 200.8Z" fill="#DC6737"/>
<path d="M149.2 147.8C139.7 142.3 132.1 137.6 132.4 137.3C132.8 136.9 155.6 141.1 163.1 143.1C166.6 144 166.7 144.2 167.4 149.4C167.7 152.4 168.3 155.5 168.6 156.4C169.7 159.4 166.6 158 149.2 147.8Z" fill="#DC6737"/>
<path d="M133.2 133.9C133.5 131.8 134.3 131.4 142 130.2C155.8 127.9 156.4 125.8 145 120C140.6 117.8 136.8 116 136.5 116C136.2 116 136 119.2 136 123C136 128.3 135.7 130 134.6 130C132.4 130 132 126.6 132 104.8C132 84.6999 132.1 83.9999 134 83.9999C135.9 83.9999 136 84.6999 136 95.3999V106.7L146.3 107.4C151.9 107.8 158.8 108.3 161.5 108.6L166.5 109.2L161.8 105C159.1 102.7 157 100.2 157 99.4999C157 98.6999 156 97.9999 154.8 97.7999C153.5 97.5999 152.1 96.4999 151.5 95.2999C151 93.9999 149.7 92.9999 148.7 92.9999C147.7 92.9999 146.7 92.2999 146.4 91.4999C146 90.6999 145.2 89.9999 144.4 89.9999C143.5 89.9999 143 88.7999 143 86.3999V82.6999L148.8 83.2999C153.7 83.7999 167.4 87.2999 173.5 89.5999C175 90.1999 174.6 89.1999 171.7 85.2999C169.7 82.4999 168 79.7999 168 79.1999C168 78.6999 167.3 77.9999 166.5 77.5999C165.7 77.2999 165 76.1999 165 75.0999C165 74.0999 164.1 72.9999 163 72.6999C161.9 72.3999 160.7 71.3999 160.3 70.2999C159.9 69.2999 159 67.8999 158.3 67.1999C157.2 66.0999 157 66.0999 157 67.2999C157 68.8999 154.9 69.9999 151.9 69.9999C150.9 69.9999 150 70.5999 150 71.3999C150 72.8999 147.9 73.9999 144.9 73.9999C143.9 73.9999 143 74.6999 143 75.4999C143 76.3999 142.1 76.9999 140.5 76.9999C138.9 76.9999 138 77.5999 138 78.4999C138 79.4999 137 79.9999 135 79.9999C133.4 79.9999 132 79.5999 132 78.9999C132 77.7999 135.6 75.4999 159.2 61.9999C169.8 55.8999 179.3 50.3999 180.2 49.6999C181.3 48.9999 182.3 48.8999 182.9 49.4999C184.3 51.0999 196 77.5999 196 79.3999C196 82.0999 191.7 83.4999 188.9 81.6999C187.6 80.8999 182 77.2999 176.5 73.7999C161.3 63.9999 161.3 63.9999 169.2 74.1999C181.2 89.5999 182.3 91.4999 181 93.8999C179.6 96.5999 179.5 96.5999 169.2 92.8999C164.4 91.2999 157.4 88.9999 153.5 87.8999L146.5 85.9999L150 88.7999C158 94.9999 172.4 107.6 172.7 108.5C172.9 109.1 172.4 110.4 171.7 111.4C170.4 113.2 169.6 113.2 156.9 112.1C149.5 111.5 141.7 110.7 139.5 110.4C133.7 109.5 135.6 110.7 152.3 118.5C166.1 125 167 125.6 167 128.3C167 129.8 166.4 131.2 165.8 131.4C165.1 131.6 158.1 132.5 150.2 133.4C142.3 134.3 135.2 135.4 134.4 135.7C133.2 136.1 132.9 135.7 133.2 133.9ZM185.5 65.3999C183 59.4999 181 54.4999 181 54.2999C181 53.9999 180.3 54.5999 179.4 55.3999C178.6 56.2999 176.8 56.9999 175.4 56.9999C174 56.9999 173 57.5999 173 58.3999C173 59.9999 170.9 60.9999 167.2 60.9999C164.7 61.0999 164.6 61.0999 166.5 62.1999C167.6 62.7999 168.7 63.5999 169 63.8999C169.3 64.1999 171.2 65.3999 173.3 66.3999C175.3 67.4999 177 68.6999 177 69.1999C177 69.5999 177.6 69.9999 178.3 69.9999C178.9 69.9999 181.5 71.3999 184 72.9999C186.5 74.5999 188.8 75.8999 189.2 75.8999C189.6 75.9999 187.9 71.1999 185.5 65.3999Z" fill="#DC6737"/>
<path d="M196 60.5001C189.2 53.7001 183.9 47.8001 184.3 47.4001C184.9 46.8001 195.4 52.4001 214 63.3001L222.4 68.3001L217.5 70.0001C214.7 70.9001 211.6 72.0001 210.5 72.3001C208.9 72.9001 206 70.6001 196 60.5001Z" fill="#DC6737"/>
<path d="M145 220.6C142.7 217.8 142.5 216.7 142.1 204.6C141.8 190.3 142.2 189 148.2 189C151.3 189 152.1 189.9 163.3 207.4C167 213.2 170.5 218 171 218C171.6 218 172 212.2 172 203.4V188.8L174.3 189.4C175.5 189.7 176.8 190 177.3 190C178.4 190 178.1 193 177 193C176.5 193 176 193.7 176 194.5C176 195.3 176.5 196 177 196C177.6 196 178 200.7 178 208.2C178 220.1 178 220.3 176.1 218.6C174.3 216.9 174.1 216.9 173.2 218.6C172.3 220.3 172.1 220.3 169.5 218.6C168 217.6 166.2 217.1 165.5 217.4C164.6 217.7 162.2 215.1 158.8 210.4C150.8 199 149.8 197.8 149.1 198.5C148.8 198.9 148.3 204.7 148 211.4L147.5 223.6L145 220.6Z" fill="#E98E41"/>
<path d="M128.8 220.6C127.7 219.6 127.3 215.4 127.1 204.1L126.9 189H129.9H133V203.3C133 221.4 132.3 224.2 128.8 220.6Z" fill="#E98E41"/>
<path d="M81.5 218.8C81.3 217.5 80.9 215.2 80.8 213.5L80.5 210.5L71.3 210C59.3 209.3 56.6 207.6 56.2 200.1C55.9 195.5 56.2 194.6 58.9 192C61.7 189.1 66 187.9 66 190C66 190.6 66.9 191 68 191C70.9 191 70.5 193.7 67.5 194.4C64.1 195.3 62.3 199.2 63.8 202.5C64.9 204.8 65.4 205 72.5 205C81.1 205 86.5 206.8 87.5 210C87.9 211.2 87.9 214.2 87.5 216.6C87 220.4 86.6 221 84.5 221C82.8 221 81.9 220.3 81.5 218.8Z" fill="#E98E41"/>
<path d="M99.7 218.2C98.3 216.7 98 214.2 98 203.7C98 191.7 98.1 191 100 191C101.1 191 102 191.6 102 192.4C102 193.2 102.6 194 103.3 194.2C104.2 194.6 104.5 198 104.5 207.1C104.5 217.5 104.3 219.5 102.9 219.8C102.1 219.9 100.6 219.2 99.7 218.2Z" fill="#E98E41"/>
<path d="M269.6 217.1C269.9 215.5 269.7 213.3 269.1 212.1C268.1 210.2 267.1 210 260.4 210C253 210 246.4 208.2 244.8 205.7C243.4 203.5 243.9 198 245.5 198C246.3 198 247 197.6 247 197C247 196.5 246.3 196 245.4 196C244.3 196 244 195.5 244.4 194.4C244.7 193.5 245 192.7 245 192.4C245 192.2 246.3 191.4 248 190.5C251.3 188.8 255 188.5 255 190C255 190.6 255.9 191 257 191C260.5 191 259.2 193.8 255.3 194.7C252 195.5 251.5 196 251.2 198.8C250.7 204 252.2 205 260.5 205C272.9 205 276 207.2 276 216.1C276 219.9 275.9 220 272.5 220C269.2 220 269.1 219.9 269.6 217.1Z" fill="#E98E41"/>
<path d="M287.6 218.5C286.1 217.3 285.7 215.3 285.3 206.3C284.8 195.9 284.8 195.3 287.1 192.7C290.1 189.3 296.1 188 298.4 190.3C300.8 192.7 300.3 193.9 296.5 194.6C292.7 195.3 291.6 197.4 292.2 202.6L292.5 205.5L303 205.6C316.7 205.8 316 205.7 316 208C316 209.9 315.3 210 304.1 210H292.1L291.8 214.7C291.5 219.8 290.5 220.7 287.6 218.5Z" fill="#E98E41"/>
<path d="M188.1 218.1C187.1 217.4 186.6 213.6 186.2 203.1C185.7 189.2 185.8 189 187.9 189C189 189 190 189.5 190 190C190 190.6 191.6 191 193.5 191C197.4 191 198.5 193.4 195 194.3C193.2 194.8 193 195.7 193 201.9C193 208.4 193.9 210.6 195.5 208C195.8 207.5 199.2 207 203 207C206.8 207 211 206.6 212.4 206C214.7 205.2 215 204.5 215 200.4C215 196.2 214.7 195.7 212 194.7C208.9 193.5 208.4 192.5 209.9 190.1C211.1 188.2 217.8 189.3 220.3 191.9C222.7 194.3 223.7 202.7 222 205.9C220.4 209 215.1 211 208.4 211H202.7L205 213.5L207.4 216.1L203.8 215.7C201.9 215.5 198.9 214.3 197.2 213.2C195.6 212 193.9 211 193.6 211C193.3 211 193 212.8 193 215C193 219.1 191.4 220.2 188.1 218.1Z" fill="#E98E41"/>
<path d="M231.3 215.2C230.5 214.7 230 210.2 229.8 202L229.5 189.5L232.8 189.2L236 188.9V202.4C236 214.7 235.8 216 234.3 216C233.3 216 232 215.6 231.3 215.2Z" fill="#E98E41"/>
<path d="M308 191C308 189.3 308.7 189 313 189C317.3 189 318 189.3 318 191C318 192.7 317.3 193 313 193C308.7 193 308 192.7 308 191Z" fill="#E98E41"/>
<path d="M138.5 140.3C136.6 138.8 136.7 138.8 139.9 139.4C141.7 139.7 143.8 140 144.4 140C145 140 144.8 140.5 144 141C141.9 142.3 140.8 142.2 138.5 140.3Z" fill="#E98E41"/>
<path d="M133 127.4C133 119.8 133 119.8 135.4 120.2C137 120.5 138.1 120.2 138.4 119.3C139.2 117.3 139.3 117.4 136 116C133.3 114.9 133 114.3 133 110.4C133 106 133 106 136.5 106C138.9 106 140 106.5 140 107.5C140 108.3 140.5 109 141 109C141.6 109 142 108.6 142 108C142 107.5 143.3 107 144.8 107C146.9 107 148 106.3 149.1 104.3C149.8 102.7 151.3 100.4 152.3 98.9998C154.2 96.4998 154.2 96.4998 151.8 95.9998C150.6 95.6998 149.1 94.3998 148.5 93.1998C148 91.9998 146.8 90.9998 145.9 90.9998C143.9 90.9998 143 88.9998 143 84.7998C143 81.8998 143.1 81.7998 146.8 82.2998C148.8 82.4998 153.1 83.2998 156.3 83.9998C162 85.2998 162.2 85.2998 164.7 82.6998L167.3 80.0998L164.7 76.5998C163.2 74.6998 162 72.4998 162 71.7998C162 70.1998 157.5 67.9998 154.3 67.9998C152.7 67.9998 152 68.5998 152 69.9998C152 71.5998 151.3 71.9998 148.5 71.9998C145.7 71.9998 145 72.3998 145 73.9998C145 75.4998 144.3 75.9998 142.5 75.9998C140.9 75.9998 140 76.5998 140 77.4998C140 78.2998 139.1 78.9998 138 78.9998C136.2 78.9998 136 79.6998 136 84.4998C136 88.5998 135.6 89.9998 134.5 89.9998C132.9 89.9998 131.6 84.8998 132.2 80.4998C132.5 77.8998 134.6 76.3998 154 65.3998C165.8 58.5998 177 52.0998 178.8 50.8998C180.6 49.6998 182.3 48.9998 182.6 49.2998C182.9 49.5998 185.9 56.2998 189.2 64.1998C195 78.0998 195.5 80.6998 192.3 81.6998C191.8 81.8998 185.3 78.3998 177.9 73.8998C159.5 62.7998 160 62.9998 163.3 67.0998C167.6 72.3998 181 91.1998 181 91.8998C181 92.1998 180.6 93.1998 180 93.9998C179.2 95.1998 177.9 94.9998 170.3 92.5998C161.8 89.7998 148.3 86.0998 146.7 85.9998C146.2 85.9998 149.2 88.6998 153.2 91.9998C168.5 104.5 171.6 107.7 170.4 109.7C169.1 111.8 163.8 112 145.5 110.7L134.5 109.9L145.8 115.8C151.9 119 157.2 121.9 157.5 122.1C158.1 122.7 155.6 129.8 154.4 130.9C153.7 131.6 136.3 135 133.6 135C133.3 135 133 131.6 133 127.4ZM178.7 63.3998C180.9 60.8998 181.8 59.0998 181.5 57.8998C180.8 55.6998 180.3 55.5998 177 57.4998C175.6 58.2998 173.5 58.8998 172.3 58.9998C170.9 58.9998 170 59.5998 170 60.4998C170 61.2998 169.6 61.9998 169 61.9998C168.5 61.9998 168 62.4998 168 62.9998C168 63.5998 168.7 63.9998 169.5 63.9998C170.3 63.9998 171 64.6998 171 65.4998C171 68.2998 175.3 67.0998 178.7 63.3998Z" fill="#E98E41"/>
<path d="M193 56.5C188.4 51.8 185 48 185.6 48C186.8 48 203.1 57.6 204.3 59C204.7 59.6 204.7 59.7 204.3 59.4C203.9 59.1 203.1 60.3 202.5 62L201.5 65L193 56.5Z" fill="#E98E41"/>
<path d="M220.8 202.7C220.2 201.4 219.4 201.1 218 201.5C216.3 202 216 201.7 216 199.2C216 195.6 214.7 194.5 209.8 193.6C206.9 193.1 206 192.4 206 191C206 188.7 209.2 188.4 215.1 190C220.5 191.5 222.2 193.9 221.8 199.6C221.6 203 221.3 203.9 220.8 202.7Z" fill="#F4A648"/>
<path d="M145.3 201.2C142.3 198.9 141.8 192.4 144.5 190.4C147.2 188.4 149.3 188.7 152 191.5C155 194.6 155.5 198.5 152.9 198.7C151.9 198.8 150.8 198.5 150.5 197.9C149.3 196.1 148.1 197 147.8 200C147.5 202.8 147.4 202.9 145.3 201.2Z" fill="#F4A648"/>
<path d="M56.4 200.9C56.1 200.4 56.2 198.4 56.6 196.4C57.1 193.9 58.2 192.3 60.4 190.9C64.1 188.6 65.7 188.5 67.6 190.4C69.7 192.5 69.3 193.4 66.2 194.6C64.2 195.4 63.1 196.6 62.7 198.7C62.2 201.1 61.6 201.8 59.5 201.8C58.1 201.8 56.7 201.4 56.4 200.9Z" fill="#F4A648"/>
<path d="M245.3 201.3C243.4 200.6 243.7 194.6 245.8 192.7C250.4 188.5 261 188.1 261 192.1C261 193.6 260.3 194 257.2 194C252.9 194 250 196.3 250 199.8C250 202 248.2 202.5 245.3 201.3Z" fill="#F4A648"/>
<path d="M128.7 200.4C128.3 200 128 197.3 128 194.3C128 189.6 128.2 189 130 189C131.9 189 132.1 189.5 131.8 194.7C131.5 199.9 130.4 202 128.7 200.4Z" fill="#F4A648"/>
<path d="M173.1 197.3C171.3 191.1 171.6 190 175 190C177.9 190 178 190.2 178 194.5C178 197.9 177.5 199.2 176 200C174.3 200.9 174 200.6 173.1 197.3Z" fill="#F4A648"/>
<path d="M187.7 200.3C187.3 200 187 197.3 187 194.3C187 189.3 187.1 189 189.5 189C191.1 189 192 189.6 192 190.5C192 191.3 192.9 192 194 192C195.1 192 196 192.5 196 193C196 193.6 195.3 194 194.5 194C193.5 194 193 195.1 193 197.5C193 200.5 192.7 201 190.7 201C189.4 201 188 200.7 187.7 200.3Z" fill="#F4A648"/>
<path d="M288 197.9C285.9 195 285.9 194.8 287.5 193C289.9 190.4 295.1 189 302.8 189C308.2 189 309 189.2 309 190.9C309 192.9 305.6 194 299 194C293.4 194 292 194.8 292 198.1C292 201.8 290.7 201.8 288 197.9Z" fill="#F4A648"/>
<path d="M100.2 198.8C99.6 198 98.8 195.5 98.4 193.2C97.7 189 97.8 189 100.9 189C103.8 189 104 189.2 104 192.8C104 197.6 102 200.9 100.2 198.8Z" fill="#F4A648"/>
<path d="M230.7 198.3C230.3 198 230 195.9 230 193.8C230 190.2 230.2 190 233 190C235.6 190 236 190.4 236 192.8C236 194.4 235.2 196.4 234.2 197.3C232.2 199.2 231.6 199.3 230.7 198.3Z" fill="#F4A648"/>
<path d="M84 191.5C84 189.7 84.5 189 86 189C87.5 189 88 189.7 88 191.5C88 193.3 87.5 194 86 194C84.5 194 84 193.3 84 191.5Z" fill="#F4A648"/>
<path d="M272 192C272 190.7 272.7 190 274 190C275.3 190 276 190.7 276 192C276 193.3 275.3 194 274 194C272.7 194 272 193.3 272 192Z" fill="#F4A648"/>
<path d="M133.6 124.3C132.7 118.7 132.9 111.7 134 110C134.6 109.1 135 109 135 109.7C135 110.3 137.2 112.1 139.9 113.5L144.8 116.2L142.7 119.9C139.8 124.7 136.9 128 135.5 128C134.8 128 134 126.3 133.6 124.3Z" fill="#F4A648"/>
<path d="M137 108.1C137 107 137.7 105.5 138.5 104.6C141.2 101.9 146.5 94.5999 147.8 91.6999L149 88.8999L153 92.0999C157.4 95.6999 158 98.2999 155.2 102.1C154.2 103.4 152.8 105.7 152.1 107.3C150.7 109.8 150.3 110 143.8 110C137.8 110 137 109.8 137 108.1Z" fill="#F4A648"/>
<path d="M155.8 87.7999C153.7 87.2999 152 86.3999 152 85.8999C152 85.4999 153.3 83.7999 154.9 82.0999C156.4 80.4999 159.2 77.0999 161 74.5999C164.1 70.2999 164.5 70.0999 166.1 71.5999C168.7 73.8999 171.2 79.7999 170.5 81.8999C168.9 87.0999 162.5 89.6999 155.8 87.7999Z" fill="#F4A648"/>
<path d="M171 69.3999C168.5 67.9999 166.3 66.6999 166.1 66.4999C165.5 65.7999 174.9 54.4999 178.5 51.6999L182 48.8999L184.3 54.1999C186.2 58.2999 186.5 59.9999 185.7 61.7999C185.1 62.9999 184.3 63.9999 183.9 63.9999C183.4 63.9999 181.8 65.7999 180.4 67.9999C178.9 70.1999 177.2 71.9999 176.6 71.9999C176 71.9999 173.5 70.7999 171 69.3999Z" fill="#F4A648"/>
<path d="M188 51C186.6 49.9 185.8 49 186.1 49C187 49 193 52.1 193 52.6C193 53.6 190.3 52.8 188 51Z" fill="#F4A648"/>
<path d="M132.8 90.8C132.6 85.1 132.6 79.8 132.8 79C133.1 77.7 160.6 61 162.4 61C163.5 61 163 63.8 161.8 64.2C161.1 64.5 161 65.1 161.5 66C163.4 69.1 161.8 74.4 157.2 80.4C154.7 83.8 152.5 86.7 152.4 86.9C152.2 87.1 150.7 86.8 149.1 86.2C146 85.1 144.5 86.5 147.5 87.6C150.2 88.7 149.1 92.2 144.6 96.6C141.1 100.2 139.6 101 136.7 101H133.1L132.8 90.8Z" fill="#FFCF16"/>
<path d="M63.3 195.5C63.7 195.1 62.8 193.9 61.4 192.9L58.7 191.2L62.6 190C64.8 189.4 71.1 189 77 189.2C86.7 189.5 87.5 189.6 87.5 191.5C87.5 193.4 86.7 193.5 76.6 193.8C70.1 194 65 194.6 64.1 195.3C63.2 195.9 62.8 196 63.3 195.5Z" fill="#EFAC4B"/>
<path d="M188.4 193.4C185.9 189.6 187.7 189 200.3 189.1C209.4 189.2 211.2 189.5 212 191C212.5 191.9 212.6 193 212.3 193.4C212 193.7 207.5 194 202.4 194C197.3 194 192.8 194.4 192.5 195C191.5 196.7 190.1 196.1 188.4 193.4Z" fill="#EFAC4B"/>
<path d="M251.3 192.4C251 191.6 251.1 190.6 251.5 190.2C251.8 189.8 257.6 189.3 264.2 189.2L276.2 188.8L275.8 191.2C275.5 193.4 275.2 193.5 263.7 193.7C254.1 193.8 251.8 193.6 251.3 192.4Z" fill="#EFAC4B"/>
<path d="M300.3 193.3C299.1 193.1 297.9 192.2 297.6 191.4C297.1 190 300.5 189.5 310 189.7C317.5 189.8 318 189.9 318 192C318 193.8 317.4 194 310.3 193.9C306 193.8 301.5 193.5 300.3 193.3Z" fill="#EFAC4B"/>
<path d="M134 115.1C133.5 114 133.1 108.7 133.1 103.3C133.2 97.9003 133.5 94.5003 133.7 95.8003C134.4 99.1003 136.8 98.5003 141.7 93.5003C145.1 90.1003 146 88.6003 145.5 87.0003C145 85.4003 145.6 85.6003 148.5 88.3003C151.9 91.5003 152.1 91.8003 150.8 94.6003C149.5 97.6003 144.8 104.2 141.2 108C139.8 109.5 138.5 110 137.1 109.5C134.4 108.7 134.4 110.4 137 112.3C138.9 113.6 139 113.9 137.5 115.4C135.4 117.4 135.3 117.4 134 115.1Z" fill="#EFAC4B"/>
<path d="M148.5 86.0002C147.4 85.5002 147 85.1002 147.5 85.1002C148.1 85.0002 150.8 82.0002 153.6 78.2002C157.2 73.5002 158.8 70.2002 159.2 67.2002C159.6 64.8002 159.4 63.2002 158.9 63.6002C158.4 63.9002 158 63.9002 158 63.6002C158 63.4002 162.9 60.5002 168.8 57.3002C178.2 52.2002 179.6 51.7002 179.7 53.3002C179.9 54.9002 170.5 68.0002 169.2 68.0002C168.9 68.0002 167.2 67.0002 165.3 65.9002C160.6 63.0002 160.2 64.1002 164.1 68.9002L167.3 73.0002L164.7 76.7002C157.6 86.9002 154.6 88.6002 148.5 86.0002Z" fill="#EFAC4B"/>
</svg>
