<?xml version="1.0" encoding="UTF-8"?>
<svg xmlns:xlink="http://www.w3.org/1999/xlink" xmlns="http://www.w3.org/2000/svg" width="198" height="158" viewBox="0 0 198 158">
  <g fill="none" fill-rule="evenodd">
    <g>
      <g>
        <path fill="#000" d="M11.142 29L7.5 35.171 3.858 29 0 29 0 44 3.06 44 3.06 33.328 6.422 38.857 8.578 38.857 11.94 33.328 11.94 44 15 44 15 29zM19 44L22 44 22 29 19 29zM26 29L30 29 36.879 39.736 36.879 29 40 29 40 44 36 44 29.121 33.221 29.121 44 26 44zM44 44L47 44 47 29 44 29zM51.393 39.96c.884 1.13 2.062 1.801 3.261 1.801 1.179 0 1.894-.628 1.894-1.697 0-2.618-6.734-2.032-6.734-6.912 0-2.325 1.915-4.253 4.714-4.253 2.21 0 3.914.985 5.155 2.472l-2.188 1.948c-.863-1.11-1.831-1.822-2.946-1.822-1.031 0-1.704.67-1.704 1.53 0 2.618 6.733 2.01 6.733 6.975-.042 2.723-2.188 4.399-4.882 4.399-2.483 0-4.166-.901-5.47-2.451l2.167-1.99zM61.094 29.318L73.172 29.318 73.172 32.021 68.627 32.021 68.627 43.982 65.639 43.982 65.639 32.021 61.094 32.021zM76.055 25.234h3.072l2.378 2.827h-2.736l-2.714-2.827zm-.253 4.084h8.585v2.535H78.79v3.393h4.756v2.535H78.79v3.666h5.597v2.535h-8.585V29.318zM90.848 31.853v3.666h1.683c1.263 0 2-.67 2-1.864 0-1.11-.737-1.802-2-1.802h-1.683zm-2.988-2.535h4.503c3.24 0 5.24 1.655 5.24 4.378 0 1.76-.863 3.08-2.358 3.792l4.63 6.494h-3.577l-3.914-5.928h-1.536v5.928H87.86V29.318zM101.727 29.318L110.312 29.318 110.312 31.853 104.715 31.853 104.715 35.246 109.47 35.246 109.47 37.781 104.715 37.781 104.715 41.447 110.312 41.447 110.312 43.982 101.727 43.982zM3.037 53.165v9.258h2.84c2.736 0 4.714-2.032 4.714-4.63 0-2.618-1.978-4.628-4.713-4.628H3.037zM.049 50.462h5.787c4.67 0 7.827 3.373 7.827 7.332 0 3.959-3.156 7.332-7.827 7.332H.049V50.462zM16.546 50.462L25.132 50.462 25.132 52.997 19.534 52.997 19.534 56.39 24.29 56.39 24.29 58.925 19.534 58.925 19.534 62.591 25.132 62.591 25.132 65.126 16.546 65.126zM34.075 50.462L37.063 50.462 37.063 62.423 42.66 62.423 42.66 65.126 34.075 65.126zM53.623 58.778l-2.02-5.509-2.02 5.51h4.04zm-3.977-8.316h3.914l5.576 14.664H55.96l-1.41-3.813h-5.892l-1.41 3.813H44.07l5.576-14.664zM65.365 50.462L77.443 50.462 77.443 53.165 72.898 53.165 72.898 65.126 69.91 65.126 69.91 53.165 65.365 53.165zM83.062 52.997v3.666h1.683c1.263 0 1.999-.67 1.999-1.865 0-1.11-.736-1.801-2-1.801h-1.682zm-2.988-2.535h4.503c3.24 0 5.239 1.655 5.239 4.378 0 1.76-.863 3.08-2.357 3.792l4.63 6.494H88.51l-3.914-5.929h-1.535v5.929h-2.988V50.462zM102.273 58.778l-2.02-5.509-2.02 5.51h4.04zm-3.977-8.316h3.914l5.576 14.664h-3.177l-1.41-3.813h-5.892l-1.41 3.813H92.72l5.576-14.664zM110.059 50.462L113.889 50.462 120.475 60.957 120.475 50.462 123.463 50.462 123.463 65.126 119.633 65.126 113.047 54.589 113.047 65.126 110.059 65.126zM128.43 61.104c.883 1.13 2.061 1.801 3.26 1.801 1.18 0 1.894-.628 1.894-1.697 0-2.618-6.733-2.032-6.733-6.912 0-2.326 1.915-4.253 4.713-4.253 2.21 0 3.914.985 5.156 2.472l-2.189 1.948c-.862-1.11-1.83-1.822-2.945-1.822-1.032 0-1.705.67-1.705 1.529 0 2.618 6.734 2.011 6.734 6.976-.043 2.723-2.189 4.399-4.882 4.399-2.483 0-4.166-.901-5.471-2.451l2.167-1.99zM139.75 65.126L142.738 65.126 142.738 50.462 139.75 50.462zM145.348 50.462L157.426 50.462 157.426 53.165 152.881 53.165 152.881 65.126 149.893 65.126 149.893 53.165 145.348 53.165zM160.056 65.126L163.044 65.126 163.044 50.462 160.056 50.462zM178.468 57.794c0-2.807-1.978-4.965-4.734-4.965-2.778 0-4.756 2.158-4.756 4.965s1.978 4.965 4.756 4.965c2.756 0 4.734-2.158 4.734-4.965m3.072 0c0 4.19-3.177 7.75-7.806 7.75-4.65 0-7.828-3.56-7.828-7.75 0-4.19 3.178-7.75 7.828-7.75 4.629 0 7.806 3.56 7.806 7.75M184.403 50.462L188.232 50.462 194.818 60.957 194.818 50.462 197.806 50.462 197.806 65.126 193.977 65.126 187.391 54.589 187.391 65.126 184.403 65.126zM2.953 70.35L5.33 67.52h3.072L5.667 70.35H2.953zM.049 71.605h8.585v2.535H3.037v3.393h4.756v2.535H3.037v3.666h5.597v2.535H.05V71.606zM22.186 81.891l2.356 1.802c-1.346 1.822-3.535 2.996-6.207 2.996-4.65 0-7.827-3.562-7.827-7.751 0-4.19 3.177-7.75 7.827-7.75 2.672 0 4.86 1.193 6.207 2.974l-2.356 1.822c-.842-1.194-2.168-2.01-3.85-2.01-2.778 0-4.756 2.157-4.756 4.964 0 2.807 1.978 4.965 4.755 4.965 1.683 0 3.01-.817 3.85-2.012M38.326 78.938c0-2.807-1.978-4.965-4.735-4.965-2.777 0-4.755 2.158-4.755 4.965s1.978 4.965 4.755 4.965c2.757 0 4.735-2.158 4.735-4.965m3.072 0c0 4.19-3.178 7.75-7.807 7.75-4.65 0-7.827-3.56-7.827-7.75 0-4.19 3.177-7.75 7.827-7.75 4.63 0 7.807 3.56 7.807 7.75M44.26 71.606L47.248 71.606 47.248 83.567 52.845 83.567 52.845 86.27 44.26 86.27zM66.25 78.938c0-2.807-1.979-4.965-4.735-4.965-2.778 0-4.755 2.158-4.755 4.965s1.977 4.965 4.755 4.965c2.756 0 4.734-2.158 4.734-4.965m3.072 0c0 4.19-3.177 7.75-7.806 7.75-4.65 0-7.828-3.56-7.828-7.75 0-4.19 3.178-7.75 7.828-7.75 4.63 0 7.806 3.56 7.806 7.75M82.768 82.625v-2.472h-3.746v-2.702h6.734v6.242c-1.368 1.822-3.662 2.996-6.418 2.996-4.777 0-8.038-3.562-8.038-7.751 0-4.19 3.177-7.75 7.827-7.75 2.673 0 4.861 1.193 6.208 2.974l-2.357 1.822c-.842-1.194-2.167-2.01-3.85-2.01-2.778 0-4.756 2.157-4.756 4.964 0 2.807 2.083 4.965 4.966 4.965 1.389 0 2.588-.482 3.43-1.278M89.081 86.269L92.069 86.269 92.069 71.606 89.081 71.606zM107.493 78.938c0-2.807-1.978-4.965-4.735-4.965-2.777 0-4.755 2.158-4.755 4.965s1.978 4.965 4.755 4.965c2.757 0 4.735-2.158 4.735-4.965m4.145 8.358c.316 0 .737-.042 1.052-.168v2.514c-.484.189-.905.272-1.557.272-1.641 0-3.156-.67-4.608-1.927l-1.747-1.55c-.63.168-1.304.252-2.02.252-4.65 0-7.827-3.562-7.827-7.751 0-4.19 3.177-7.75 7.827-7.75 4.63 0 7.807 3.56 7.807 7.75 0 2.45-1.094 4.692-2.904 6.117l.884.838c1.136 1.026 2.146 1.403 3.093 1.403M122.117 71.606h2.988v8.924c0 3.854-2.272 6.159-5.976 6.159-3.682 0-5.954-2.305-5.954-6.159v-8.924h2.987v9.175c0 1.97 1.116 3.122 2.988 3.122 1.831 0 2.967-1.153 2.967-3.122v-9.175zM128.809 71.606L137.394 71.606 137.394 74.141 131.797 74.141 131.797 77.534 136.552 77.534 136.552 80.069 131.797 80.069 131.797 83.735 137.394 83.735 137.394 86.27 128.809 86.27z" transform="translate(-80 -30) translate(80 30)"></path>
        <g fill="#000">
          <path d="M30.897 29.952c.54 0 .648.613.443 1.312h-1.123c-.368.387-.659.73-.983 1.129l-1.145 3.02c-.119.313-.248.388-.54.388-.475 0-.702-.312-.486-.796l1.167-2.58c.4-.881.259-1.28 0-1.28-.216 0-.486.248-.778.667h-.28c.42-.924.971-1.86 1.576-1.86.518 0 .702.506.702 1.075v.796c.648-1.387.81-1.87 1.447-1.87zm17.613 0c.821 0 1.523.602.94 1.979l-2.992.978c-.053.258-.086.537-.086.817 0 .677.26.978.767.978.497 0 .993-.43 1.458-.978h.367c-.691 1.29-1.534 2.075-2.344 2.075-.69 0-1.133-.505-1.133-1.43 0-2.064 1.609-4.419 3.023-4.419zm-3.78-1.333l-.55 1.548h1.436l-.183.613h-1.48l-1.447 4.032c.659-.119 1.426-.677 1.825-1.097h.28c-.507 1.204-1.954 2.086-2.85 2.086-.378 0-.573-.366-.432-.731l1.577-4.29h-.994v-.44l1.22-.173 1.026-1.548h.573zm-32.645 1.333c.54 0 .648.613.442 1.312h-1.123c-.367.387-.659.73-.983 1.129l-1.144 3.02c-.12.313-.249.388-.54.388-.476 0-.702-.312-.486-.796l1.166-2.58c.4-.881.26-1.28 0-1.28-.216 0-.486.248-.778.667h-.28c.42-.924.972-1.86 1.576-1.86.519 0 .702.506.702 1.075v.796c.648-1.387.81-1.87 1.448-1.87zm24.06 0c.519 0 .8.323.8.818 0 .29-.098.655-.292 1.042l-1.512 3.043c.443-.075.918-.516 1.199-.914h.28c-.41 1.086-1.436 1.86-2.3 1.86-.378 0-.604-.398-.432-.731l1.76-3.365c.206-.387.249-.645-.064-.645-.432 0-1.523.688-2.052 1.333l-1.145 3.02c-.119.313-.248.388-.54.388-.475 0-.702-.312-.486-.796l1.167-2.58c.399-.881.15-1.72-.41-1.688v-.107c.29-.398.604-.678.928-.678.518 0 .702.506.702 1.075v.796c.896-1.032 1.652-1.87 2.397-1.87zm-18.823-.28l.454.033-1.588 3.623c-.389.87-.226 1.28 0 1.28.216 0 .486-.248.778-.667h.28c-.42.924-.971 1.86-1.576 1.86-.518 0-.82-.538-.735-1.527l.033-.344c-.702.968-1.328 1.87-1.966 1.87-.54 0-.885-.322-.885-.88 0-2 2.127-4.753 4.59-4.753h.108l.507-.494zm4.18-1.053l-.551 1.548h1.436l-.184.613h-1.48l-1.446 4.032c.658-.119 1.425-.677 1.825-1.097h.28c-.507 1.204-1.954 2.086-2.85 2.086-.379 0-.573-.366-.432-.731l1.576-4.29h-.993v-.44l1.22-.173 1.026-1.548h.573zm3.78 1.333c.82 0 1.522.602.939 1.979l-2.992.978c-.054.258-.086.537-.086.817 0 .677.26.978.767.978.496 0 .993-.43 1.458-.978h.367c-.691 1.29-1.534 2.075-2.344 2.075-.691 0-1.134-.505-1.134-1.43 0-2.064 1.61-4.419 3.024-4.419zm14.935 0c.205 0 .475.226.356.624l-1.76 4.279c.443-.075.918-.516 1.198-.914h.281c-.41 1.075-1.371 1.86-2.192 1.86-.205 0-.508-.226-.356-.624l1.652-4.278c-.443.075-.918.516-1.199.913h-.28c.41-1.086 1.436-1.86 2.3-1.86zM8.834 27.738L8.499 29.5h-.4c0-1.01-.118-1.28-1.123-1.28h-.69c-.973 0-1.124.15-1.383.871l-.832 2.269h1.566c.778 0 1.059-.452 1.415-1.065h.41l-.95 2.591h-.41c.108-.774.097-1.064-.616-1.064H3.9l-.584 1.602c-.572 1.559-.388 1.559 1.048 1.828l-.108.333H0l.097-.333c1.329-.237 1.555-.355 2.095-1.828l1.296-3.526c.54-1.484.432-1.592-.723-1.828l.108-.333h5.961zm6.706 3.268c-.831 0-2.31 1.796-2.31 3.118 0 .398.129.57.334.57.356 0 1.123-.731 1.62-1.333l.864-2.29c-.152-.044-.324-.065-.508-.065zm32.398-.258c-.432 0-.972.634-1.296 1.494l1.858-.43c.183-.763-.162-1.064-.562-1.064zm-23.229 0c-.432 0-.972.634-1.296 1.494l1.857-.43c.184-.763-.162-1.064-.561-1.064zm25.767-3.526v.225l-2.106 1.957h-.324l1.296-2.182h1.134zm-9.6-.215c.388 0 .712.322.712.71 0 .397-.324.709-.713.709-.399 0-.712-.312-.712-.71 0-.387.313-.71.712-.71zM11.684 16.514c.27 0 .54.075.767.214h1.9l-.183.613H12.97c.076.172.119.366.119.592 0 1.064-.918 2.333-2.333 2.408-.367.193-.55.462-.55.688 0 .28.388.355 1.252.613 1.005.3 1.62.548 1.62 1.236 0 .892-1.652 1.957-3.629 1.957-1.166 0-2.148-.312-2.148-1.054 0-.763.637-1.3 2.257-1.774-.206-.16-.292-.333-.292-.58 0-.43.389-.796 1.09-1.108-.626-.118-1.144-.623-1.144-1.43 0-1.064.972-2.375 2.473-2.375zm-1.847 5.655c-.788.311-1.339.666-1.339 1.236 0 .538.497.752 1.523.752 1.22 0 2.117-.397 2.117-.924 0-.247-.314-.355-1.134-.624-.519-.172-.907-.311-1.167-.44zm13.748-8.73l.097.118-3.013 7.86c.443-.076 1.026-.517 1.307-.915h.28c-.41 1.086-1.328 1.86-2.192 1.86-.378 0-.605-.398-.432-.73l2.355-6.172c.302-.796.41-1.043.075-1.301l-.367-.28v-.225l1.89-.215zm-4.547 2.795l.454.032-1.588 3.623c-.388.871-.226 1.28 0 1.28.217 0 .486-.247.778-.667h.28c-.42.925-.971 1.86-1.576 1.86-.518 0-.82-.537-.734-1.527l.032-.344c-.702.968-1.328 1.871-1.965 1.871-.54 0-.886-.323-.886-.882 0-2 2.128-4.752 4.59-4.752h.108l.507-.494zm15.011.28c.821 0 1.523.601.94 1.978l-2.991.978c-.055.258-.087.538-.087.817 0 .677.26.978.767.978.497 0 .993-.43 1.458-.978h.367c-.691 1.29-1.534 2.075-2.344 2.075-.69 0-1.133-.505-1.133-1.43 0-2.064 1.608-4.418 3.023-4.418zm-8.293 0c.205 0 .475.225.356.623l-1.76 4.28c.442-.076.918-.517 1.198-.915h.281c-.41 1.075-1.371 1.86-2.192 1.86-.205 0-.508-.226-.356-.624l1.652-4.278c-.443.075-.918.516-1.199.913h-.28c.41-1.085 1.435-1.86 2.3-1.86zm4.514-1.334l-.551 1.548h1.436l-.183.613h-1.48l-1.447 4.032c.659-.118 1.425-.677 1.825-1.097h.281c-.508 1.204-1.955 2.086-2.851 2.086-.378 0-.573-.365-.432-.73l1.577-4.29h-.994V16.9l1.22-.173 1.026-1.548h.573zM8.834 14.3l-.335 1.763h-.4c0-1-.118-1.269-1.123-1.269h-.69c-.973 0-1.124.14-1.383.86l-.788 2.161H5.68c.778 0 1.059-.451 1.415-1.064h.41l-.95 2.591h-.41c.108-.774.097-1.064-.616-1.064H3.942l-.627 1.71c-.583 1.6-.745 1.676 1.016 1.676 1.328 0 2.278-.677 3.034-1.387h.454L6.63 22.147H0l.097-.333c1.329-.237 1.555-.355 2.095-1.828l1.296-3.526c.54-1.484.432-1.591-.723-1.828l.108-.333h5.961zm8.423 3.268c-.83 0-2.31 1.796-2.31 3.118 0 .398.129.57.334.57.357 0 1.123-.731 1.62-1.333l.864-2.29c-.151-.043-.324-.065-.508-.065zm-5.69-.645c-.81 0-1.33 1.409-1.33 2.365 0 .344.141.645.498.645.81 0 1.328-1.408 1.328-2.365 0-.344-.14-.645-.497-.645zm21.91.387c-.431 0-.971.635-1.295 1.495l1.857-.43c.184-.764-.161-1.065-.561-1.065zm2.539-3.526v.226l-2.106 1.956h-.324l1.296-2.182h1.134zm-9.6-.215c.388 0 .712.322.712.71 0 .397-.324.709-.713.709-.4 0-.713-.312-.713-.71 0-.387.314-.71.713-.71zM8.498 12.106v.225l-2.106 1.44h-.335l1.167-1.665h1.274zm1.976-9.031c.206 0 .476.226.357.623l-1.76 4.28c.442-.076.917-.517 1.198-.915h.281c-.41 1.075-1.372 1.86-2.192 1.86-.206 0-.508-.225-.357-.623l1.653-4.28c-.443.076-.918.517-1.2.915h-.28c.41-1.086 1.437-1.86 2.3-1.86zM15.303 0l.097.118-1.804 4.72c.713-.968 1.426-1.763 2.182-1.763.605 0 .929.322.929 1.193 0 2.021-2.452 4.655-3.92 4.655-.638 0-1.34-.484-1.34-1 0-.118.173-.548.313-.914l1.944-4.988c.303-.774.41-1.043.076-1.3l-.367-.28V.215L15.303 0zm4.88 3.075c.822 0 1.524.602.94 1.978l-2.991.978c-.054.258-.086.538-.086.817 0 .678.259.979.766.979.497 0 .994-.43 1.458-.979h.367c-.69 1.29-1.533 2.075-2.343 2.075-.691 0-1.134-.505-1.134-1.43 0-2.064 1.61-4.418 3.024-4.418zm5.616 0c.54 0 .649.613.443 1.311H25.12c-.367.387-.658.731-.982 1.13l-1.145 3.02c-.119.312-.249.387-.54.387-.475 0-.702-.311-.486-.795l1.166-2.58c.4-.882.26-1.28 0-1.28-.216 0-.486.247-.777.667h-.281c.421-.925.972-1.86 1.577-1.86.518 0 .701.505.701 1.075v.795c.648-1.387.81-1.87 1.447-1.87zm3.834-1.333l-.55 1.548h1.436l-.184.612h-1.48L27.41 7.934c.658-.118 1.425-.677 1.825-1.096h.28c-.507 1.204-1.954 2.085-2.85 2.085-.379 0-.573-.365-.433-.73l1.577-4.29h-.788v-.441l1.015-.172 1.026-1.548h.572zm3.715 1.333c.821 0 1.523.602.94 1.978l-2.992.978c-.054.258-.086.538-.086.817 0 .678.259.979.767.979.496 0 .993-.43 1.458-.979h.367c-.691 1.29-1.534 2.075-2.344 2.075-.69 0-1.134-.505-1.134-1.43 0-2.064 1.61-4.418 3.024-4.418zM6.782.86l-.097.333c-1.329.237-1.566.355-2.095 1.828L3.315 6.547c-.54 1.505-.42 1.678.584 1.678 1.328 0 2.192-1.011 2.926-1.817h.454l-1.296 2.3H0l.097-.333c1.329-.237 1.555-.355 2.095-1.828l1.275-3.526c.54-1.484.432-1.591-.724-1.828L2.851.86h3.931zm8.337 3.311c-.443 0-1.231.656-1.75 1.269l-.485 1.28c-.162.419-.292.752-.292.827 0 .236.421.505.713.505 1.188 0 2.29-2.139 2.29-3.31 0-.399-.206-.57-.476-.57zm4.493-.3c-.432 0-.972.634-1.296 1.494l1.857-.43c.184-.764-.162-1.065-.561-1.065zm13.164 0c-.432 0-.972.634-1.296 1.494l1.857-.43c.184-.764-.162-1.065-.561-1.065zM35.314.343V.57l-2.106 1.956h-.324L34.18.344h1.134zM11.134.129c.389 0 .713.322.713.71 0 .397-.324.71-.713.71-.4 0-.713-.313-.713-.71 0-.388.314-.71.713-.71z" transform="translate(-80 -30) translate(80 30) translate(.042 96.199)"></path>
        </g>
        <path fill="#000091" d="M15.776 14.064c-.037-.037.11 0 .148-.074h-.296c-.037 0-.037-.037-.037-.074-.185.037-.407.11-.591.148-.259.073-.48.257-.776.33-.407.148-.74.479-1.183.626-.037 0-.037-.037-.037-.074.037-.11.185-.147.259-.257 0-.037 0-.074-.037-.074.295-.404.702-.625 1.072-.956v-.11c.11-.148.295-.221.37-.405.036-.11.184-.258.369-.331-.037-.037-.111-.037-.111-.11-.148 0-.296.073-.444-.038.07-.068.148-.106.232-.13-.032-.007-.06-.023-.084-.053-.037-.074.071-.157.185-.185.148-.037.333-.037.443-.147-.258-.036-.554.074-.813-.073.185-.479.48-.883.924-1.104.037 0 .111 0 .111.037 0 .184-.11.33-.296.368.296.073.592.073.888.22-.037.074-.111.037-.148.037.184.11.406.037.59.184-.11.11-.22 0-.332 0 1.146.331 2.366.589 3.327 1.325-.813.404-1.663.588-2.55.772-.111 0-.185 0-.296-.036 0 .036 0 .11-.037.11-.148 0-.259 0-.37.074-.148.073-.37.11-.48 0m-.757 2.559l-.01.006c-.138.097-.275.196-.421.28-.158.092-.324.161-.488.239 0-.003-.003-.006-.004-.01-.013-.016-.039-.027-.063-.014-.14.075-.259.175-.372.282l-.051.05-.003.003-.003.002-.053.052-.006.007-.002.003c-.027.026-.052.052-.08.086-.019.022-.025.035-.05.051-.023.016-.087.015-.08-.027v-.008l-.066.034c-.02.01-.039.02-.058.032-.008-.004-.016-.005-.025-.004-.01 0-.019.003-.027.009-.045.035-.09.072-.133.112-.077.07-.15.145-.215.227l-.003.003-.007.01-.011.015-.012.015-.003.004c-.01.012-.017.025-.026.037l-.001.002c-.006.007-.017.012-.03.015l-.015-.022-.01-.018c-.012-.02-.022-.039-.032-.06l-.001-.001-.01-.019c.041-.042.08-.087.117-.132l.008-.009.038-.047.062-.079.022-.029c.041-.053.08-.104.116-.155 0-.002.002-.003.003-.004l.016-.024c.018-.026.035-.052.05-.078.015-.025.028-.049.04-.074l.004-.005c0-.003.002-.006.004-.008l.006-.014c.013-.027.024-.056.035-.085 0-.004.002-.007.003-.01l.008-.024.012-.04v-.001l.002-.009c.005-.018.01-.035.013-.054.002-.01 0-.018-.005-.024.04-.07.09-.136.147-.2l-.017.01c-.053.034-.088.082-.137.118-.04.03-.115-.02-.067-.055.033-.024.057-.05.084-.076l.004-.006c.061-.06.12-.136.189-.186.042-.031.079-.057.113-.087l.016-.014c.026-.034.054-.065.083-.093l.004-.004c.354-.34.95-.325 1.416-.541.185-.074.406.037.591 0 .11 0 .222 0 .333.073-.332.18-.64.384-.942.573m.662.304c-.017.04-.054.075-.09.107.045.01.078.03.048.057-.086.078-.168.157-.28.195-.008.002-.03.006-.057.007-.045.044-.09.088-.138.13-.044.038-.247.01-.185-.045.094-.083.181-.173.273-.257.053-.047.108-.093.154-.146.026-.03.047-.059.08-.082.03-.02.225-.038.195.034m-1.716-5.513c-.037.074-.078.082-.111.147-.037.074-.074.11-.148.148-.037 0-.074 0-.074-.037.037-.147.148-.294.296-.331.037 0 .037.037.037.073m-3.068 2.429s-.037-.037-.037-.074c.48-.625.85-1.214 1.183-1.876.48-.258.88-.633 1.257-1.03.628-.663 1.293-1.252 2.07-1.62.295-.11.665-.073.96.037-.11.148-.295.11-.443.221-.037 0-.074 0-.111-.037.037-.036.037-.073.037-.11-.37.405-.887.588-1.183 1.067-.222.368-.37.846-.85.957-.148.036.037-.11-.037-.074-1.146.699-1.959 1.545-2.846 2.539m5.655.81c-.074 0-.222.036-.185-.038.037-.184.296-.184.444-.257.074-.037.184-.11.258-.074.074.11.185.074.26.147-.223.221-.518.11-.777.221m5.683 2.636c.21-.21.422-.434.633-.659h-.004c.392-.442.777-.864 1.232-1.252.139-.124.273-.232.402-.32.037-.037.037-.11.074-.147-.185.073-.296.22-.48.294-.037 0-.074-.037-.037-.073l.395-.295h-.026c-.037 0-.037-.037-.037-.073-.48-.074-.85.257-1.182.551-.074.037-.148-.036-.185-.036-.555.184-.961.662-1.516.883v-.074c-.221.074-.437.207-.665.258-.332.073-.628.036-.924.036-.448.045-.896.143-1.344.239l-.038.01c-.24.065-.467.154-.689.275l-.025.015-.054.064c-.08.087-.148.166-.253.22-.227.115-.413.315-.613.478-.015.012-.036.017-.06.019-.198.189-.393.38-.595.567-.014.013-.07.02-.112.013l.003-.003.021-.035.095-.155c.035-.058.072-.115.11-.171.05-.076.101-.152.157-.224.014-.02.01-.036-.002-.049-.011-.012-.03-.019-.05-.019.184-.178.403-.33.62-.46v-.007c-.025.009-.061-.011-.042-.037.023-.033.042-.067.063-.1l.012-.033-.028-.03c-.06.04-.123.076-.173.122-.089.079-.158.241-.292.24-.01 0-.035-.002-.056-.008-.016-.003-.03-.007-.039-.013l.005-.009.005-.01.006-.01.017-.031.018-.032.014-.025.026-.047.02-.033.047-.081.023-.04.04-.066c.018-.031-.002-.056-.028-.066.068-.089.152-.163.253-.22h-.011c.141-.07.282-.157.424-.236l.061-.053c-.21.071-.4.166-.588.29 0 0-.048.02-.062.033 0 0-.043.016-.092-.034-.005-.007-.01-.015-.01-.027.038-.073.149-.11.223-.184.037 0 .073 0 .073.037 1.183-.92 2.81-.699 4.177-1.177l.332-.221c.185-.074.333-.258.555-.368.295-.22.517-.478.628-.846 0-.037-.037-.074-.037-.074-.48.515-1.035.92-1.626 1.214-.776.405-1.626.331-2.44.442.038-.074.112-.074.185-.074 0-.11.074-.147.148-.22h.111c.037 0 .037-.074.074-.074.074 0 .185-.037.148-.037-.11-.147-.333.11-.517 0 .074-.074.036-.184.11-.22h.148c0-.074.074-.148.074-.148.555-.331 1.072-.588 1.59-.883-.111 0-.185.11-.296.037.074 0 0-.11.074-.11.406-.111.739-.332 1.146-.479-.148 0-.26.11-.407 0 .074-.037.11-.11.222-.11v-.11c0-.037.037-.037.074-.037-.037 0-.074-.037-.074-.037.037-.074.147-.037.221-.11-.036 0-.11 0-.11-.037.11-.148.295-.184.48-.221-.037-.073-.148 0-.148-.073 0-.037.037-.037.074-.037h-.074c-.074-.037-.037-.11-.037-.148.222-.257.222-.588.333-.883-.037 0-.074 0-.074-.036-.37.404-.961.551-1.515.699h-.185c-.185.073-.444.073-.628-.037-.148-.074-.222-.184-.37-.294-.296-.185-.592-.332-.924-.442-.924-.294-1.885-.442-2.846-.405.407-.22.855-.24 1.294-.368.628-.184 1.22-.404 1.884-.368-.11-.036-.258 0-.37 0-.516-.036-1.034.11-1.588.221-.37.074-.703.22-1.072.294-.222.074-.333.295-.591.258v-.11c.37-.442.813-.884 1.404-.92.665-.11 1.294 0 1.959.073.48.037.924.148 1.404.258.185 0 .222.294.37.331.222.074.443 0 .665.147 0-.073-.037-.147 0-.22.148-.148.333.036.48-.037.296-.184-.258-.516-.406-.773 0-.037.037-.074.037-.074.296.258.518.552.887.736.185.074.628.184.554-.037-.184-.404-.554-.735-.85-1.103V9.06c-.073 0-.073-.037-.11-.074v-.147c-.148-.074-.111-.221-.185-.331-.111-.184-.037-.442-.111-.663-.074-.22-.111-.404-.148-.625-.11-.626-.259-1.177-.333-1.766-.074-.7.407-1.251.74-1.877.258-.441.554-.883 1.034-1.177.111-.442.407-.81.703-1.178.295-.359.785-.577 1.14-.735.517-.23.983-.373.983-.374H0v19.471h17.963c.703-.504 1.406-.744 2.388-1.226.464-.227 1.525-.712 1.884-1.07" transform="translate(-80 -30) translate(80 30)"></path>
        <path fill="#E1000F" d="M53.786.113h-21.04s.04.007.2.092c.17.092.392.21.53.282.272.14.535.318.705.588.074.11.185.332.111.479-.073.184-.11.478-.295.552-.222.11-.518.11-.776.073-.148 0-.296-.037-.444-.073.554.22 1.072.478 1.442.993.036.074.184.11.332.11.037 0 .037.074.037.11-.074.074-.148.111-.11.221h.11c.185-.073.148-.44.407-.33.184.11.258.367.148.551-.148.147-.296.258-.444.368-.037.074-.037.184 0 .258.11.147.148.294.185.441.11.258.148.552.259.81.147.552.295 1.104.258 1.655 0 .295-.148.552-.037.847.074.294.259.515.407.772.147.221.295.368.406.59.222.367.629.735.444 1.176-.111.258-.518.221-.776.368-.222.184-.037.479.073.663.185.33-.221.552-.48.662.074.11.222.074.259.147.037.184.221.295.11.478-.147.221-.59.332-.369.663.148.257.052.543-.037.81-.11.33-.406.477-.665.551-.222.074-.48.074-.702.037-.074-.037-.148-.074-.222-.074-.628-.073-1.257-.257-1.885-.257-.185.037-.37.073-.517.147-.168.122-.316.254-.448.394l-.004.005c-.028.029-.055.059-.081.089l-.048.056-.031.038c-.108.135-.205.277-.29.424l-.017.028-.029.052c-.121.223-.213.452-.28.675-.25.842-.141 1.565.035 1.74.05.05 1.22.41 2.036.77.382.17.65.3.872.44h20.66V.114z" transform="translate(-80 -30) translate(80 30)"></path>
        <path fill="#9D9D9C" d="M33.998 7.217c.147.036.37.036.37.11-.075.294-.518.368-.74.662h-.111c-.11.074-.074.258-.185.258-.11-.037-.222 0-.332.037.147.147.332.257.554.22.037 0 .11.074.11.148 0 0 .038 0 .075-.037.037 0 .074 0 .074.037v.147c-.111.147-.296.073-.444.11.296.074.592.074.85 0 .222-.074 0-.442.148-.625-.074 0 0-.11-.074-.11.074-.074.148-.185.222-.222.074 0 .185-.036.222-.11 0-.074-.148-.11-.111-.184.222-.147.406-.368.333-.589-.037-.11-.333-.11-.518-.184-.185-.073-.407 0-.628.037-.185 0-.37.11-.555.147-.258.074-.48.221-.702.368.259-.11.518-.147.813-.22.222 0 .41-.055.629 0" transform="translate(-80 -30) translate(80 30)"></path>
      </g>
    </g>
  </g>
</svg>
